<svg width="32" height="32" viewBox="0 0 32 32" fill="none" xmlns="http://www.w3.org/2000/svg">
  <path d="M16 2C14.8954 2 14 2.89543 14 4V6.5C14 7.32843 13.3284 8 12.5 8H10C8.89543 8 8 8.89543 8 10V12C8 13.1046 7.10457 14 6 14H4C2.89543 14 2 14.8954 2 16C2 17.1046 2.89543 18 4 18H6C7.10457 18 8 18.8954 8 20V22C8 23.1046 8.89543 24 10 24H12.5C13.3284 24 14 24.6716 14 25.5V28C14 29.1046 14.8954 30 16 30C17.1046 30 18 29.1046 18 28V25.5C18 24.6716 18.6716 24 19.5 24H22C23.1046 24 24 23.1046 24 22V20C24 18.8954 24.8954 18 26 18H28C29.1046 18 30 17.1046 30 16C30 14.8954 29.1046 14 28 14H26C24.8954 14 24 13.1046 24 12V10C24 8.89543 23.1046 8 22 8H19.5C18.6716 8 18 7.32843 18 6.5V4C18 2.89543 17.1046 2 16 2Z" fill="#22C55E"/>
  <circle cx="16" cy="16" r="4" fill="#16A34A"/>
  <path d="M12 12L14 14M18 18L20 20M12 20L14 18M18 14L20 12" stroke="#16A34A" stroke-width="1" stroke-linecap="round"/>
</svg>